ffmpeg started on 2016-11-26 at 15:51:57
Report written to "Output/NVENCh264/results/ffmpeg/old_town_cross_2160p50ll6000k.log"
Command line:
Tools/ffmpeg/ffmpeg -benchmark -y -i Input/y4m/old_town_cross_2160p50.y4m -c:v h264_nvenc -preset ll -b:v 6000k -an Output/NVENCh264/encoded/old_town_cross_2160p50ll6000k.mkv
ffmpeg version N-82227-gdb23fde Copyright (c) 2000-2016 the FFmpeg developers
  built with gcc 5.4.0 (Ubuntu 5.4.0-6ubuntu1~16.04.2) 20160609
  configuration: --prefix=/home/jaroslav/ffmpeg_build --pkg-config-flags=--static --extra-cflags=-I/home/jaroslav/ffmpeg_build/include --extra-ldflags=-L/home/jaroslav/ffmpeg_build/lib --bindir=/home/jaroslav/bin --enable-gpl --enable-libass --enable-libfdk-aac --enable-libfreetype --enable-libmp3lame --enable-libopus --enable-libtheora --enable-libvorbis --enable-libvpx --enable-libx264 --enable-libx265 --enable-nvenc --enable-libmfx --enable-libxvid --enable-libgsm --enable-libopencore-amrnb --enable-version3 --enable-nonfree
  libavutil      55. 35.100 / 55. 35.100
  libavcodec     57. 66.101 / 57. 66.101
  libavformat    57. 57.100 / 57. 57.100
  libavdevice    57.  2.100 / 57.  2.100
  libavfilter     6. 66.100 /  6. 66.100
  libswscale      4.  3.100 /  4.  3.100
  libswresample   2.  4.100 /  2.  4.100
  libpostproc    54.  2.100 / 54.  2.100
Input #0, yuv4mpegpipe, from 'Input/y4m/old_town_cross_2160p50.y4m':
  Duration: 00:00:10.00, start: 0.000000, bitrate: 4976642 kb/s
    Stream #0:0: Video: rawvideo (I420 / 0x30323449), yuv420p(progressive), 3840x2160, SAR 1:1 DAR 16:9, 50 fps, 50 tbr, 50 tbn, 50 tbc
[h264_nvenc @ 0x4580120] The variable bitrate rate-control requires the 'qmin' and/or 'qmax' option set.
Output #0, matroska, to 'Output/NVENCh264/encoded/old_town_cross_2160p50ll6000k.mkv':
  Metadata:
    encoder         : Lavf57.57.100
    Stream #0:0: Video: h264 (h264_nvenc) (Main) (H264 / 0x34363248), yuv420p, 3840x2160 [SAR 1:1 DAR 16:9], q=-1--1, 6000 kb/s, 50 fps, 1k tbn, 50 tbc
    Metadata:
      encoder         : Lavc57.66.101 h264_nvenc
    Side data:
      cpb: bitrate max/min/avg: 0/0/6000000 buffer size: 12000000 vbv_delay: -1
Stream mapping:
  Stream #0:0 -> #0:0 (rawvideo (native) -> h264 (h264_nvenc))
Press [q] to stop, [?] for help
frame=   17 fps=0.0 q=0.0 size=       0kB time=00:00:00.00 bitrate=N/A speed=   0x    frame=   31 fps= 23 q=40.0 size=       1kB time=00:00:00.00 bitrate=5976.0kbits/s speed=0.000748x    frame=   42 fps= 21 q=36.0 size=       1kB time=00:00:00.22 bitrate=  27.0kbits/s speed=0.108x    frame=   55 fps= 20 q=36.0 size=       1kB time=00:00:00.48 bitrate=  12.4kbits/s speed=0.178x    frame=   73 fps= 23 q=36.0 size=       1kB time=00:00:00.84 bitrate=   7.1kbits/s speed=0.261x    frame=   91 fps= 24 q=36.0 size=       1kB time=00:00:01.20 bitrate=   5.0kbits/s speed=0.322x    frame=  109 fps= 26 q=36.0 size=       1kB time=00:00:01.56 bitrate=   3.8kbits/s speed=0.367x    frame=  127 fps= 27 q=34.0 size=       1kB time=00:00:01.92 bitrate=   3.1kbits/s speed=0.403x    frame=  145 fps= 27 q=34.0 size=       1kB time=00:00:02.28 bitrate=   2.6kbits/s speed=0.432x    frame=  163 fps= 28 q=33.0 size=       1kB time=00:00:02.64 bitrate=   2.3kbits/s speed=0.456x    frame=  181 fps= 29 q=36.0 size=       1kB time=00:00:03.00 bitrate=   2.0kbits/s speed=0.476x    frame=  199 fps= 29 q=34.0 size=       1kB time=00:00:03.36 bitrate=   1.8kbits/s speed=0.493x    frame=  217 fps= 30 q=34.0 size=       1kB time=00:00:03.72 bitrate=   1.6kbits/s speed=0.507x    frame=  235 fps= 30 q=33.0 size=       1kB time=00:00:04.08 bitrate=   1.5kbits/s speed=0.52x    frame=  253 fps= 30 q=35.0 size=       1kB time=00:00:04.44 bitrate=   1.3kbits/s speed=0.531x    frame=  271 fps= 31 q=34.0 size=       1kB time=00:00:04.80 bitrate=   1.2kbits/s speed=0.541x    frame=  277 fps= 30 q=33.0 size=       1kB time=00:00:04.92 bitrate=   1.2kbits/s speed=0.524x    frame=  294 fps= 30 q=39.0 size=    3519kB time=00:00:05.26 bitrate=5478.9kbits/s speed=0.532x    frame=  308 fps= 29 q=37.0 size=    3519kB time=00:00:05.54 bitrate=5202.0kbits/s speed=0.522x    frame=  326 fps= 29 q=36.0 size=    3519kB time=00:00:05.90 bitrate=4884.7kbits/s speed=0.531x    frame=  344 fps= 30 q=36.0 size=    3519kB time=00:00:06.26 bitrate=4603.8kbits/s speed=0.538x    frame=  362 fps= 30 q=34.0 size=    3519kB time=00:00:06.62 bitrate=4353.5kbits/s speed=0.545x    frame=  380 fps= 30 q=33.0 size=    3519kB time=00:00:06.98 bitrate=4129.0kbits/s speed=0.551x    frame=  386 fps= 29 q=35.0 size=    3519kB time=00:00:07.10 bitrate=4059.2kbits/s speed=0.525x    frame=  392 fps= 28 q=34.0 size=    3519kB time=00:00:07.22 bitrate=3991.8kbits/s speed=0.515x    frame=  398 fps= 27 q=34.0 size=    3519kB time=00:00:07.34 bitrate=3926.5kbits/s speed=0.504x    frame=  402 fps= 26 q=33.0 size=    3519kB time=00:00:07.42 bitrate=3884.2kbits/s speed=0.483x    frame=  408 fps= 26 q=34.0 size=    3519kB time=00:00:07.54 bitrate=3822.4kbits/s speed=0.475x    frame=  424 fps= 26 q=34.0 size=    3519kB time=00:00:07.86 bitrate=3666.8kbits/s speed=0.48x    frame=  440 fps= 26 q=34.0 size=    3519kB time=00:00:08.18 bitrate=3523.4kbits/s speed=0.475x    frame=  446 fps= 25 q=34.0 size=    3519kB time=00:00:08.30 bitrate=3472.4kbits/s speed=0.459x    frame=  456 fps= 24 q=34.0 size=    3519kB time=00:00:08.50 bitrate=3390.7kbits/s speed=0.454x    frame=  461 fps= 24 q=34.0 size=    3519kB time=00:00:08.60 bitrate=3351.3kbits/s speed=0.447x    frame=  467 fps= 24 q=34.0 size=    3519kB time=00:00:08.72 bitrate=3305.2kbits/s speed=0.441x    frame=  475 fps= 23 q=36.0 size=    3519kB time=00:00:08.88 bitrate=3245.6kbits/s speed=0.436x    frame=  481 fps= 23 q=36.0 size=    3519kB time=00:00:09.00 bitrate=3202.4kbits/s speed=0.431x    frame=  487 fps= 23 q=36.0 size=    3519kB time=00:00:09.12 bitrate=3160.2kbits/s speed=0.426x    frame=  500 fps= 23 q=37.0 size=    3519kB time=00:00:09.38 bitrate=3072.7kbits/s speed=0.424x    frame=  500 fps= 23 q=36.0 Lsize=    7241kB time=00:00:09.98 bitrate=5943.5kbits/s speed=0.451x    
video:7237kB audio:0kB subtitle:0kB other streams:0kB global headers:0kB muxing overhead: 0.059791%
bench: utime=1.128s
bench: maxrss=1408584kB
